<svg width="44" height="44" viewBox="0 0 44 44" fill="none" xmlns="http://www.w3.org/2000/svg">
<path d="M16.5 17.875C16.5 16.3565 15.2685 15.125 13.75 15.125H12.375C9.33711 15.125 6.875 17.5871 6.875 20.625V24.75C6.875 27.7879 9.33711 30.25 12.375 30.25H13.75C15.2685 30.25 16.5 29.0185 16.5 27.5V17.875ZM31.625 30.25C34.6629 30.25 37.125 27.7879 37.125 24.75V20.625C37.125 17.5871 34.6629 15.125 31.625 15.125H30.25C28.7315 15.125 27.5 16.3565 27.5 17.875V27.5C27.5 29.0185 28.7315 30.25 30.25 30.25H31.625ZM22 0C9.72641 0 0.393594 10.212 0 22V23.375C0 24.1347 0.615312 24.75 1.375 24.75H2.75C3.50969 24.75 4.125 24.1347 4.125 23.375V22C4.125 12.1438 12.1438 4.125 22 4.125C31.8562 4.125 39.875 12.1438 39.875 22H39.8647C39.8716 22.2088 39.875 36.2416 39.875 36.2416C39.875 38.2482 38.2482 39.875 36.2416 39.875H27.5C27.5 37.5968 25.6532 35.75 23.375 35.75H20.625C18.3468 35.75 16.5 37.5968 16.5 39.875C16.5 42.1532 18.3468 44 20.625 44H36.2416C40.5264 44 44 40.5264 44 36.2416V22C43.6064 10.212 34.2736 0 22 0Z" fill="#C14848"/>
</svg>
