<svg width="40" height="44" viewBox="0 0 40 44" fill="none" xmlns="http://www.w3.org/2000/svg">
<path d="M40 30.9375V2.0625C40 0.919531 39.0446 0 37.8571 0H8.57143C3.83929 0 0 3.69531 0 8.25V35.75C0 40.3047 3.83929 44 8.57143 44H37.8571C39.0446 44 40 43.0805 40 41.9375V40.5625C40 39.918 39.6875 39.3336 39.2054 38.9555C38.8304 37.632 38.8304 33.8594 39.2054 32.5359C39.6875 32.1664 40 31.582 40 30.9375ZM11.4286 11.5156C11.4286 11.232 11.6696 11 11.9643 11H30.8929C31.1875 11 31.4286 11.232 31.4286 11.5156V13.2344C31.4286 13.518 31.1875 13.75 30.8929 13.75H11.9643C11.6696 13.75 11.4286 13.518 11.4286 13.2344V11.5156ZM11.4286 17.0156C11.4286 16.732 11.6696 16.5 11.9643 16.5H30.8929C31.1875 16.5 31.4286 16.732 31.4286 17.0156V18.7344C31.4286 19.018 31.1875 19.25 30.8929 19.25H11.9643C11.6696 19.25 11.4286 19.018 11.4286 18.7344V17.0156ZM34.0536 38.5H8.57143C6.99107 38.5 5.71429 37.2711 5.71429 35.75C5.71429 34.2375 7 33 8.57143 33H34.0536C33.8839 34.4695 33.8839 37.0305 34.0536 38.5Z" fill="#C14848"/>
</svg>
