<svg width="44" height="44" viewBox="0 0 44 44" fill="none" xmlns="http://www.w3.org/2000/svg">
<path d="M43.4016 38.0408L34.833 29.4737C34.4463 29.087 33.922 28.8722 33.372 28.8722H31.9711C34.3431 25.8389 35.7526 22.0236 35.7526 17.8733C35.7526 8 27.7512 0 17.8763 0C8.00137 0 0 8 0 17.8733C0 27.7465 8.00137 35.7465 17.8763 35.7465C22.0274 35.7465 25.8433 34.3373 28.8771 31.9656V33.3663C28.8771 33.9162 29.092 34.4404 29.4787 34.8271L38.0473 43.3942C38.8552 44.2019 40.1615 44.2019 40.9608 43.3942L43.393 40.9624C44.2009 40.1547 44.2009 38.8486 43.4016 38.0408ZM17.8763 28.8722C11.8001 28.8722 6.8755 23.957 6.8755 17.8733C6.8755 11.7981 11.7915 6.87433 17.8763 6.87433C23.9525 6.87433 28.8771 11.7895 28.8771 17.8733C28.8771 23.9484 23.9611 28.8722 17.8763 28.8722Z" fill="#C14848"/>
</svg>
